<svg xmlns="http://www.w3.org/2000/svg" viewBox="0 0 1680 772" width="1680" height="772" style="display:block"><rect x="0" y="0" width="1680" height="772" fill="#ffffff"></rect><path d="M238 128 V119 H814 V128" fill="none" stroke="#c6ccd6" stroke-width="1.2"></path><text x="526" y="113" text-anchor="middle" style="font:600 13px &#39;Inter&#39;, sans-serif;fill:#3b414d;">DenseNet-121 backbone   ·   ImageNet-pretrained   ·   dense connectivity   ·   ~7.9 M params</text><polygon points="190,150 190,150 190,300 190,300" fill="#d6d9df" stroke="#aeb4bf" stroke-width="1.1" stroke-linejoin="round"></polygon><polygon points="70,150 190,150 190,150 70,150" fill="#f4f5f7" stroke="#aeb4bf" stroke-width="1.1" stroke-linejoin="round"></polygon><rect x="70" y="150" width="120" height="150" fill="#e8eaee" stroke="#aeb4bf" stroke-width="1.1"></rect><clipPath id="cl3_70"><rect x="70" y="150" width="120" height="150"></rect></clipPath><g clip-path="url(#cl3_70)"><line x1="-80" y1="150" x2="70" y2="300" stroke="#9aa0ad" stroke-width="0.8" opacity="0.5"></line><line x1="-72" y1="150" x2="78" y2="300" stroke="#9aa0ad" stroke-width="0.8" opacity="0.5"></line><line x1="-64" y1="150" x2="86" y2="300" stroke="#9aa0ad" stroke-width="0.8" opacity="0.5"></line><line x1="-56" y1="150" x2="94" y2="300" stroke="#9aa0ad" stroke-width="0.8" opacity="0.5"></line><line x1="-48" y1="150" x2="102" y2="300" stroke="#9aa0ad" stroke-width="0.8" opacity="0.5"></line><line x1="-40" y1="150" x2="110" y2="300" stroke="#9aa0ad" stroke-width="0.8" opacity="0.5"></line><line x1="-32" y1="150" x2="118" y2="300" stroke="#9aa0ad" stroke-width="0.8" opacity="0.5"></line><line x1="-24" y1="150" x2="126" y2="300" stroke="#9aa0ad" stroke-width="0.8" opacity="0.5"></line><line x1="-16" y1="150" x2="134" y2="300" stroke="#9aa0ad" stroke-width="0.8" opacity="0.5"></line><line x1="-8" y1="150" x2="142" y2="300" stroke="#9aa0ad" stroke-width="0.8" opacity="0.5"></line><line x1="0" y1="150" x2="150" y2="300" stroke="#9aa0ad" stroke-width="0.8" opacity="0.5"></line><line x1="8" y1="150" x2="158" y2="300" stroke="#9aa0ad" stroke-width="0.8" opacity="0.5"></line><line x1="16" y1="150" x2="166" y2="300" stroke="#9aa0ad" stroke-width="0.8" opacity="0.5"></line><line x1="24" y1="150" x2="174" y2="300" stroke="#9aa0ad" stroke-width="0.8" opacity="0.5"></line><line x1="32" y1="150" x2="182" y2="300" stroke="#9aa0ad" stroke-width="0.8" opacity="0.5"></line><line x1="40" y1="150" x2="190" y2="300" stroke="#9aa0ad" stroke-width="0.8" opacity="0.5"></line><line x1="48" y1="150" x2="198" y2="300" stroke="#9aa0ad" stroke-width="0.8" opacity="0.5"></line><line x1="56" y1="150" x2="206" y2="300" stroke="#9aa0ad" stroke-width="0.8" opacity="0.5"></line><line x1="64" y1="150" x2="214" y2="300" stroke="#9aa0ad" stroke-width="0.8" opacity="0.5"></line><line x1="72" y1="150" x2="222" y2="300" stroke="#9aa0ad" stroke-width="0.8" opacity="0.5"></line><line x1="80" y1="150" x2="230" y2="300" stroke="#9aa0ad" stroke-width="0.8" opacity="0.5"></line><line x1="88" y1="150" x2="238" y2="300" stroke="#9aa0ad" stroke-width="0.8" opacity="0.5"></line><line x1="96" y1="150" x2="246" y2="300" stroke="#9aa0ad" stroke-width="0.8" opacity="0.5"></line><line x1="104" y1="150" x2="254" y2="300" stroke="#9aa0ad" stroke-width="0.8" opacity="0.5"></line><line x1="112" y1="150" x2="262" y2="300" stroke="#9aa0ad" stroke-width="0.8" opacity="0.5"></line><line x1="120" y1="150" x2="270" y2="300" stroke="#9aa0ad" stroke-width="0.8" opacity="0.5"></line><line x1="128" y1="150" x2="278" y2="300" stroke="#9aa0ad" stroke-width="0.8" opacity="0.5"></line><line x1="136" y1="150" x2="286" y2="300" stroke="#9aa0ad" stroke-width="0.8" opacity="0.5"></line><line x1="144" y1="150" x2="294" y2="300" stroke="#9aa0ad" stroke-width="0.8" opacity="0.5"></line><line x1="152" y1="150" x2="302" y2="300" stroke="#9aa0ad" stroke-width="0.8" opacity="0.5"></line><line x1="160" y1="150" x2="310" y2="300" stroke="#9aa0ad" stroke-width="0.8" opacity="0.5"></line><line x1="168" y1="150" x2="318" y2="300" stroke="#9aa0ad" stroke-width="0.8" opacity="0.5"></line><line x1="176" y1="150" x2="326" y2="300" stroke="#9aa0ad" stroke-width="0.8" opacity="0.5"></line><line x1="184" y1="150" x2="334" y2="300" stroke="#9aa0ad" stroke-width="0.8" opacity="0.5"></line></g><text x="130" y="150" text-anchor="middle" style="font:500 12px &#39;JetBrains Mono&#39;, monospace;fill:#737a88;">320 × 320 × 3</text><text x="130" y="334" text-anchor="middle" style="font:700 14.5px &#39;Inter&#39;, sans-serif;fill:#20242c;">Input</text><polygon points="286,178 300,168.76 300,290.76 286,300" fill="#cbdef5" stroke="#9cbbe4" stroke-width="1.1" stroke-linejoin="round"></polygon><polygon points="238,178 286,178 300,168.76 252,168.76" fill="#eff5fe" stroke="#9cbbe4" stroke-width="1.1" stroke-linejoin="round"></polygon><rect x="238" y="178" width="48" height="122" fill="#e1ecfb" stroke="#9cbbe4" stroke-width="1.1"></rect><text x="262" y="150" text-anchor="middle" style="font:500 12px &#39;JetBrains Mono&#39;, monospace;fill:#737a88;">80² · 64</text><text x="262" y="334" text-anchor="middle" style="font:700 14.5px &#39;Inter&#39;, sans-serif;fill:#20242c;">Stem</text><text x="262" y="353" text-anchor="middle" style="font:400 12.5px &#39;JetBrains Mono&#39;, monospace;fill:#737a88;">7×7 s2·pool</text><polygon points="378,178 398,164.8 398,286.8 378,300" fill="#b1d0f0" stroke="#86abdd" stroke-width="1.1" stroke-linejoin="round"></polygon><polygon points="320,178 378,178 398,164.8 340,164.8" fill="#deecfb" stroke="#86abdd" stroke-width="1.1" stroke-linejoin="round"></polygon><rect x="320" y="178" width="58" height="122" fill="#cbdef6" stroke="#86abdd" stroke-width="1.1"></rect><text x="349" y="244.25" text-anchor="middle" style="font:700 15px &#39;Inter&#39;, sans-serif;fill:#20242c;">×6</text><text x="349" y="150" text-anchor="middle" style="font:500 12px &#39;JetBrains Mono&#39;, monospace;fill:#737a88;">80² · 256</text><text x="349" y="334" text-anchor="middle" style="font:700 14.5px &#39;Inter&#39;, sans-serif;fill:#20242c;">Dense block 1</text><text x="349" y="353" text-anchor="middle" style="font:400 12.5px &#39;JetBrains Mono&#39;, monospace;fill:#737a88;">×6</text><polygon points="430,202 456,184.84 456,282.84 430,300" fill="#b1d0f0" stroke="#86abdd" stroke-width="1.1" stroke-linejoin="round"></polygon><polygon points="408,202 430,202 456,184.84 434,184.84" fill="#deecfb" stroke="#86abdd" stroke-width="1.1" stroke-linejoin="round"></polygon><rect x="408" y="202" width="22" height="98" fill="#cbdef6" stroke="#86abdd" stroke-width="1.1"></rect><text x="421" y="334" text-anchor="middle" style="font:700 13px &#39;Inter&#39;, sans-serif;fill:#737a88;">T</text><text x="421" y="351" text-anchor="middle" style="font:600 11.5px &#39;JetBrains Mono&#39;, monospace;fill:#cf6037;">↓2</text><polygon points="526,202 554,183.52 554,281.52 526,300" fill="#90b5e9" stroke="#6f97d6" stroke-width="1.1" stroke-linejoin="round"></polygon><polygon points="470,202 526,202 554,183.52 498,183.52" fill="#c6dcf7" stroke="#6f97d6" stroke-width="1.1" stroke-linejoin="round"></polygon><rect x="470" y="202" width="56" height="98" fill="#abc9f0" stroke="#6f97d6" stroke-width="1.1"></rect><text x="498" y="256.25" text-anchor="middle" style="font:700 15px &#39;Inter&#39;, sans-serif;fill:#20242c;">×12</text><text x="498" y="150" text-anchor="middle" style="font:500 12px &#39;JetBrains Mono&#39;, monospace;fill:#737a88;">40² · 512</text><text x="498" y="334" text-anchor="middle" style="font:700 14.5px &#39;Inter&#39;, sans-serif;fill:#20242c;">Dense block 2</text><text x="498" y="353" text-anchor="middle" style="font:400 12.5px &#39;JetBrains Mono&#39;, monospace;fill:#737a88;">×12</text><polygon points="580,224 618,198.92 618,274.92 580,300" fill="#90b5e9" stroke="#6f97d6" stroke-width="1.1" stroke-linejoin="round"></polygon><polygon points="558,224 580,224 618,198.92 596,198.92" fill="#c6dcf7" stroke="#6f97d6" stroke-width="1.1" stroke-linejoin="round"></polygon><rect x="558" y="224" width="22" height="76" fill="#abc9f0" stroke="#6f97d6" stroke-width="1.1"></rect><text x="571" y="334" text-anchor="middle" style="font:700 13px &#39;Inter&#39;, sans-serif;fill:#737a88;">T</text><text x="571" y="351" text-anchor="middle" style="font:600 11.5px &#39;JetBrains Mono&#39;, monospace;fill:#cf6037;">↓2</text><polygon points="672,224 714,196.28 714,272.28 672,300" fill="#6f97e1" stroke="#5a82cf" stroke-width="1.1" stroke-linejoin="round"></polygon><polygon points="618,224 672,224 714,196.28 660,196.28" fill="#a6c6f2" stroke="#5a82cf" stroke-width="1.1" stroke-linejoin="round"></polygon><rect x="618" y="224" width="54" height="76" fill="#88b0ec" stroke="#5a82cf" stroke-width="1.1"></rect><text x="645" y="267.25" text-anchor="middle" style="font:700 15px &#39;Inter&#39;, sans-serif;fill:#fff;">×24</text><text x="645" y="150" text-anchor="middle" style="font:500 12px &#39;JetBrains Mono&#39;, monospace;fill:#737a88;">20² · 1024</text><text x="645" y="334" text-anchor="middle" style="font:700 14.5px &#39;Inter&#39;, sans-serif;fill:#20242c;">Dense block 3</text><text x="645" y="353" text-anchor="middle" style="font:400 12.5px &#39;JetBrains Mono&#39;, monospace;fill:#737a88;">×24</text><polygon points="726,242 774,210.32 774,268.32 726,300" fill="#6f97e1" stroke="#5a82cf" stroke-width="1.1" stroke-linejoin="round"></polygon><polygon points="704,242 726,242 774,210.32 752,210.32" fill="#a6c6f2" stroke="#5a82cf" stroke-width="1.1" stroke-linejoin="round"></polygon><rect x="704" y="242" width="22" height="58" fill="#88b0ec" stroke="#5a82cf" stroke-width="1.1"></rect><text x="717" y="334" text-anchor="middle" style="font:700 13px &#39;Inter&#39;, sans-serif;fill:#737a88;">T</text><text x="717" y="351" text-anchor="middle" style="font:600 11.5px &#39;JetBrains Mono&#39;, monospace;fill:#cf6037;">↓2</text><polygon points="814,242 868,206.36 868,264.36 814,300" fill="#5077cc" stroke="#43699f" stroke-width="1.1" stroke-linejoin="round"></polygon><polygon points="762,242 814,242 868,206.36 816,206.36" fill="#85aceb" stroke="#43699f" stroke-width="1.1" stroke-linejoin="round"></polygon><rect x="762" y="242" width="52" height="58" fill="#6592e3" stroke="#43699f" stroke-width="1.1"></rect><text x="788" y="276.25" text-anchor="middle" style="font:700 15px &#39;Inter&#39;, sans-serif;fill:#fff;">×16</text><text x="788" y="150" text-anchor="middle" style="font:500 12px &#39;JetBrains Mono&#39;, monospace;fill:#737a88;">10² · 1024</text><text x="788" y="334" text-anchor="middle" style="font:700 14.5px &#39;Inter&#39;, sans-serif;fill:#20242c;">Dense block 4</text><text x="788" y="353" text-anchor="middle" style="font:400 12.5px &#39;JetBrains Mono&#39;, monospace;fill:#737a88;">×16</text><line x1="194" y1="262" x2="223.9" y2="262" stroke="#3b414d" stroke-width="1.8" stroke-linecap="round"></line><path d="M232 262 L223.71045105397403 265.5047650807779 L223.71045105397403 258.4952349192221 Z" fill="#3b414d"></path><line x1="290" y1="262" x2="305.9" y2="262" stroke="#3b414d" stroke-width="1.8" stroke-linecap="round"></line><path d="M314 262 L305.71045105397405 265.5047650807779 L305.71045105397405 258.4952349192221 Z" fill="#3b414d"></path><line x1="382" y1="262" x2="393.9" y2="262" stroke="#3b414d" stroke-width="1.8" stroke-linecap="round"></line><path d="M402 262 L393.71045105397405 265.5047650807779 L393.71045105397405 258.4952349192221 Z" fill="#3b414d"></path><line x1="434" y1="262" x2="455.9" y2="262" stroke="#3b414d" stroke-width="1.8" stroke-linecap="round"></line><path d="M464 262 L455.71045105397405 265.5047650807779 L455.71045105397405 258.4952349192221 Z" fill="#3b414d"></path><line x1="530" y1="262" x2="543.9" y2="262" stroke="#3b414d" stroke-width="1.8" stroke-linecap="round"></line><path d="M552 262 L543.710451053974 265.5047650807779 L543.710451053974 258.4952349192221 Z" fill="#3b414d"></path><line x1="584" y1="262" x2="603.9" y2="262" stroke="#3b414d" stroke-width="1.8" stroke-linecap="round"></line><path d="M612 262 L603.710451053974 265.5047650807779 L603.710451053974 258.4952349192221 Z" fill="#3b414d"></path><line x1="676" y1="262" x2="689.9" y2="262" stroke="#3b414d" stroke-width="1.8" stroke-linecap="round"></line><path d="M698 262 L689.710451053974 265.5047650807779 L689.710451053974 258.4952349192221 Z" fill="#3b414d"></path><line x1="730" y1="262" x2="747.9" y2="262" stroke="#3b414d" stroke-width="1.8" stroke-linecap="round"></line><path d="M756 262 L747.710451053974 265.5047650807779 L747.710451053974 258.4952349192221 Z" fill="#3b414d"></path><line x1="818" y1="262" x2="822.0102092169597" y2="261.3316317971734" stroke="#3b414d" stroke-width="1.8" stroke-linecap="round"></line><path d="M830 260 L822.3994191183539 264.81987243208323 L821.2470594583078 257.9057144718065 Z" fill="#3b414d"></path><rect x="836" y="214" width="126" height="92" rx="9" fill="#fbfcfe" stroke="#c6ccd6" stroke-width="1.3"></rect><text x="899" y="248" text-anchor="middle" style="font:700 14.5px &#39;Inter&#39;, sans-serif;fill:#20242c;">Adaptive</text><text x="899" y="267" text-anchor="middle" style="font:700 14.5px &#39;Inter&#39;, sans-serif;fill:#20242c;">avg pool</text><text x="899" y="294" text-anchor="middle" style="font:600 12px &#39;JetBrains Mono&#39;, monospace;fill:#737a88;">1024-d</text><line x1="966" y1="260" x2="995.9" y2="260" stroke="#3b414d" stroke-width="1.8" stroke-linecap="round"></line><path d="M1004 260 L995.710451053974 263.5047650807779 L995.710451053974 256.4952349192221 Z" fill="#3b414d"></path><rect x="1010" y="206" width="176" height="108" rx="9" fill="#fafcff" stroke="#c6ccd6" stroke-width="1.3"></rect><path d="M1011.5 215 a7.5 7.5 0 0 1 7.5 -7.5 M1011.5 305 a7.5 7.5 0 0 0 7.5 7.5"></path><rect x="1010" y="206" width="4" height="108" rx="2" fill="#2f6fd6"></rect><rect x="1014" y="206" width="6" height="108" fill="#fafcff"></rect><text x="1102" y="236" text-anchor="middle" style="font:700 15.5px &#39;Inter&#39;, sans-serif;fill:#20242c;">Feature layer</text><text x="1102" y="262" text-anchor="middle" style="font:400 12.5px &#39;JetBrains Mono&#39;, monospace;fill:#3b414d;">Linear 1024 → 512</text><text x="1102" y="282" text-anchor="middle" style="font:400 12.5px &#39;JetBrains Mono&#39;, monospace;fill:#737a88;">ReLU · Dropout 0.3</text><line x1="1190" y1="260" x2="1195.9" y2="260" stroke="#3b414d" stroke-width="1.8" stroke-linecap="round"></line><path d="M1204 260 L1195.710451053974 263.5047650807779 L1195.710451053974 256.4952349192221 Z" fill="#3b414d"></path><rect x="1212" y="194" width="26" height="12" fill="#cbdef6" stroke="#86abdd" stroke-width="0.8"></rect><rect x="1212" y="206" width="26" height="12" fill="#cbdef6" stroke="#86abdd" stroke-width="0.8"></rect><rect x="1212" y="218" width="26" height="12" fill="#cbdef6" stroke="#86abdd" stroke-width="0.8"></rect><rect x="1212" y="230" width="26" height="12" fill="#cbdef6" stroke="#86abdd" stroke-width="0.8"></rect><rect x="1212" y="242" width="26" height="12" fill="#cbdef6" stroke="#86abdd" stroke-width="0.8"></rect><rect x="1212" y="254" width="26" height="12" fill="#cbdef6" stroke="#86abdd" stroke-width="0.8"></rect><rect x="1212" y="266" width="26" height="12" fill="#cbdef6" stroke="#86abdd" stroke-width="0.8"></rect><rect x="1212" y="278" width="26" height="12" fill="#cbdef6" stroke="#86abdd" stroke-width="0.8"></rect><rect x="1212" y="290" width="26" height="12" fill="#cbdef6" stroke="#86abdd" stroke-width="0.8"></rect><rect x="1212" y="302" width="26" height="12" fill="#cbdef6" stroke="#86abdd" stroke-width="0.8"></rect><rect x="1212" y="314" width="26" height="12" fill="#cbdef6" stroke="#86abdd" stroke-width="0.8"></rect><rect x="1212" y="194" width="26" height="132" fill="none" stroke="#737a88" stroke-width="1.1"></rect><text x="1225" y="344" text-anchor="middle" style="font:600 12.5px &#39;JetBrains Mono&#39;, monospace;fill:#737a88;">512-d</text><text x="1225" y="360" text-anchor="middle" style="font:400 11.5px &#39;Inter&#39;, sans-serif;fill:#9aa0ad;">shared</text><path d="M1238 260 L1284 260 L1284 188 L1314 188" fill="none" stroke="#3b414d" stroke-width="1.8" stroke-linejoin="round" stroke-linecap="round"></path><path d="M1314 188 L1305.710451053974 191.50476508077784 L1305.710451053974 184.49523491922216 Z" fill="#3b414d"></path><path d="M1238 260 L1284 260 L1284 388 L1314 388" fill="none" stroke="#3b414d" stroke-width="1.8" stroke-linejoin="round" stroke-linecap="round"></path><path d="M1314 388 L1305.710451053974 391.5047650807779 L1305.710451053974 384.4952349192221 Z" fill="#3b414d"></path><rect x="1320" y="122" width="296" height="132" rx="11" fill="#fffcfa" stroke="#c6ccd6" stroke-width="1.3"></rect><path d="M1321.5 133 a9.5 9.5 0 0 1 9.5 -9.5 M1321.5 243 a9.5 9.5 0 0 0 9.5 9.5"></path><rect x="1320" y="122" width="4" height="132" rx="2" fill="#cf6037"></rect><rect x="1324" y="122" width="6" height="132" fill="#fffcfa"></rect><text x="1342" y="148" text-anchor="start" style="font:700 16.5px &#39;Inter&#39;, sans-serif;fill:#20242c;">Multi-label head</text><text x="1342" y="172" text-anchor="start" style="font:400 12.5px &#39;JetBrains Mono&#39;, monospace;fill:#3b414d;">Linear 512 → 14 · sigmoid</text><text x="1342" y="192" text-anchor="start" style="font:400 11.5px &#39;JetBrains Mono&#39;, monospace;fill:#737a88;">weighted BCE · pos_weight</text><rect x="1342" y="210" width="11.5" height="20" rx="2.5" fill="#cf6037" stroke="#cf6037" stroke-width="0.7" opacity="0.92"></rect><rect x="1360.4" y="210" width="11.5" height="20" rx="2.5" fill="#f2d9cd" stroke="#cf6037" stroke-width="0.7" opacity="0.6"></rect><rect x="1378.8" y="210" width="11.5" height="20" rx="2.5" fill="#f2d9cd" stroke="#cf6037" stroke-width="0.7" opacity="0.6"></rect><rect x="1397.2" y="210" width="11.5" height="20" rx="2.5" fill="#f2d9cd" stroke="#cf6037" stroke-width="0.7" opacity="0.6"></rect><rect x="1415.6" y="210" width="11.5" height="20" rx="2.5" fill="#cf6037" stroke="#cf6037" stroke-width="0.7" opacity="0.92"></rect><rect x="1434" y="210" width="11.5" height="20" rx="2.5" fill="#f2d9cd" stroke="#cf6037" stroke-width="0.7" opacity="0.6"></rect><rect x="1452.4" y="210" width="11.5" height="20" rx="2.5" fill="#f2d9cd" stroke="#cf6037" stroke-width="0.7" opacity="0.6"></rect><rect x="1470.8" y="210" width="11.5" height="20" rx="2.5" fill="#f2d9cd" stroke="#cf6037" stroke-width="0.7" opacity="0.6"></rect><rect x="1489.2" y="210" width="11.5" height="20" rx="2.5" fill="#cf6037" stroke="#cf6037" stroke-width="0.7" opacity="0.92"></rect><rect x="1507.6" y="210" width="11.5" height="20" rx="2.5" fill="#f2d9cd" stroke="#cf6037" stroke-width="0.7" opacity="0.6"></rect><rect x="1526" y="210" width="11.5" height="20" rx="2.5" fill="#f2d9cd" stroke="#cf6037" stroke-width="0.7" opacity="0.6"></rect><rect x="1544.4" y="210" width="11.5" height="20" rx="2.5" fill="#f2d9cd" stroke="#cf6037" stroke-width="0.7" opacity="0.6"></rect><rect x="1562.8" y="210" width="11.5" height="20" rx="2.5" fill="#cf6037" stroke="#cf6037" stroke-width="0.7" opacity="0.92"></rect><rect x="1581.2" y="210" width="11.5" height="20" rx="2.5" fill="#f2d9cd" stroke="#cf6037" stroke-width="0.7" opacity="0.6"></rect><text x="1594" y="148" text-anchor="end" style="font:600 10.5px &#39;JetBrains Mono&#39;, monospace;fill:#cf6037;letter-spacing:0.4px;text-transform:uppercase;">primary</text><rect x="1320" y="336" width="296" height="104" rx="11" fill="#fafcff" stroke="#c6ccd6" stroke-width="1.3"></rect><path d="M1321.5 347 a9.5 9.5 0 0 1 9.5 -9.5 M1321.5 429 a9.5 9.5 0 0 0 9.5 9.5"></path><rect x="1320" y="336" width="4" height="104" rx="2" fill="#2f6fd6"></rect><rect x="1324" y="336" width="6" height="104" fill="#fafcff"></rect><text x="1342" y="366" text-anchor="start" style="font:700 16.5px &#39;Inter&#39;, sans-serif;fill:#20242c;">Binary head</text><text x="1342" y="390" text-anchor="start" style="font:400 12.5px &#39;JetBrains Mono&#39;, monospace;fill:#3b414d;">Linear 512 → 1 · sigmoid</text><text x="1342" y="412" text-anchor="start" style="font:400 11.5px &#39;JetBrains Mono&#39;, monospace;fill:#737a88;">Normal vs. Abnormal</text><text x="1594" y="366" text-anchor="end" style="font:600 10.5px &#39;JetBrains Mono&#39;, monospace;fill:#2f6fd6;letter-spacing:0.4px;text-transform:uppercase;">aux</text><line x1="70" y1="432" x2="1610" y2="432" stroke="#e2e6ec" stroke-width="1.4"></line><text x="72" y="458" text-anchor="start" style="font:700 12.5px &#39;Inter&#39;, sans-serif;fill:#20242c;letter-spacing:1.6px;text-transform:uppercase;">DENSE CONNECTIVITY</text><text x="290" y="458" text-anchor="start" style="font:400 12.5px &#39;Inter&#39;, sans-serif;fill:#737a88;">— within a block, every layer receives the concatenated feature maps of all preceding layers (growth k = 32)</text><path d="M120 664 C 120 630, 320 630, 320 664" fill="none" stroke="#3b414d" stroke-width="1.5" opacity="0.9"></path><path d="M320 664 l -4 -7 l 8 0 z" fill="#3b414d" opacity="0.95"></path><path d="M120 664 C 120 606, 520 606, 520 664" fill="none" stroke="#2f6fd6" stroke-width="1.2" opacity="0.5"></path><path d="M520 664 l -4 -7 l 8 0 z" fill="#2f6fd6" opacity="0.6"></path><path d="M120 664 C 120 582, 720 582, 720 664" fill="none" stroke="#2f6fd6" stroke-width="1.2" opacity="0.5"></path><path d="M720 664 l -4 -7 l 8 0 z" fill="#2f6fd6" opacity="0.6"></path><path d="M120 664 C 120 558, 920 558, 920 664" fill="none" stroke="#2f6fd6" stroke-width="1.2" opacity="0.5"></path><path d="M920 664 l -4 -7 l 8 0 z" fill="#2f6fd6" opacity="0.6"></path><path d="M120 664 C 120 534, 1120 534, 1120 664" fill="none" stroke="#2f6fd6" stroke-width="1.2" opacity="0.5"></path><path d="M1120 664 l -4 -7 l 8 0 z" fill="#2f6fd6" opacity="0.6"></path><path d="M320 664 C 320 630, 520 630, 520 664" fill="none" stroke="#3b414d" stroke-width="1.5" opacity="0.9"></path><path d="M520 664 l -4 -7 l 8 0 z" fill="#3b414d" opacity="0.95"></path><path d="M320 664 C 320 606, 720 606, 720 664" fill="none" stroke="#2f6fd6" stroke-width="1.2" opacity="0.5"></path><path d="M720 664 l -4 -7 l 8 0 z" fill="#2f6fd6" opacity="0.6"></path><path d="M320 664 C 320 582, 920 582, 920 664" fill="none" stroke="#2f6fd6" stroke-width="1.2" opacity="0.5"></path><path d="M920 664 l -4 -7 l 8 0 z" fill="#2f6fd6" opacity="0.6"></path><path d="M320 664 C 320 558, 1120 558, 1120 664" fill="none" stroke="#2f6fd6" stroke-width="1.2" opacity="0.5"></path><path d="M1120 664 l -4 -7 l 8 0 z" fill="#2f6fd6" opacity="0.6"></path><path d="M520 664 C 520 630, 720 630, 720 664" fill="none" stroke="#3b414d" stroke-width="1.5" opacity="0.9"></path><path d="M720 664 l -4 -7 l 8 0 z" fill="#3b414d" opacity="0.95"></path><path d="M520 664 C 520 606, 920 606, 920 664" fill="none" stroke="#2f6fd6" stroke-width="1.2" opacity="0.5"></path><path d="M920 664 l -4 -7 l 8 0 z" fill="#2f6fd6" opacity="0.6"></path><path d="M520 664 C 520 582, 1120 582, 1120 664" fill="none" stroke="#2f6fd6" stroke-width="1.2" opacity="0.5"></path><path d="M1120 664 l -4 -7 l 8 0 z" fill="#2f6fd6" opacity="0.6"></path><path d="M720 664 C 720 630, 920 630, 920 664" fill="none" stroke="#3b414d" stroke-width="1.5" opacity="0.9"></path><path d="M920 664 l -4 -7 l 8 0 z" fill="#3b414d" opacity="0.95"></path><path d="M720 664 C 720 606, 1120 606, 1120 664" fill="none" stroke="#2f6fd6" stroke-width="1.2" opacity="0.5"></path><path d="M1120 664 l -4 -7 l 8 0 z" fill="#2f6fd6" opacity="0.6"></path><path d="M920 664 C 920 630, 1120 630, 1120 664" fill="none" stroke="#3b414d" stroke-width="1.5" opacity="0.9"></path><path d="M1120 664 l -4 -7 l 8 0 z" fill="#3b414d" opacity="0.95"></path><rect x="74" y="666" width="92" height="48" rx="9" fill="#eef1f5" stroke="#c6ccd6" stroke-width="1.3"></rect><text x="120" y="687" text-anchor="middle" style="font:500 12px &#39;JetBrains Mono&#39;, monospace;fill:#3b414d;">x₀</text><text x="120" y="703" text-anchor="middle" style="font:500 12px &#39;JetBrains Mono&#39;, monospace;fill:#3b414d;">input</text><circle cx="320" cy="690" r="26" fill="#cbdef6" stroke="#86abdd" stroke-width="1.4"></circle><text x="320" y="695.5" text-anchor="middle" style="font:700 16px &#39;Inter&#39;, sans-serif;fill:#20242c;">H₁</text><circle cx="520" cy="690" r="26" fill="#cbdef6" stroke="#86abdd" stroke-width="1.4"></circle><text x="520" y="695.5" text-anchor="middle" style="font:700 16px &#39;Inter&#39;, sans-serif;fill:#20242c;">H₂</text><circle cx="720" cy="690" r="26" fill="#cbdef6" stroke="#86abdd" stroke-width="1.4"></circle><text x="720" y="695.5" text-anchor="middle" style="font:700 16px &#39;Inter&#39;, sans-serif;fill:#20242c;">H₃</text><circle cx="920" cy="690" r="26" fill="#cbdef6" stroke="#86abdd" stroke-width="1.4"></circle><text x="920" y="695.5" text-anchor="middle" style="font:700 16px &#39;Inter&#39;, sans-serif;fill:#20242c;">H₄</text><rect x="1074" y="666" width="92" height="48" rx="9" fill="#fbfcfe" stroke="#c6ccd6" stroke-width="1.3"></rect><text x="1120" y="687" text-anchor="middle" style="font:500 12px &#39;JetBrains Mono&#39;, monospace;fill:#3b414d;">BN·ReLU</text><text x="1120" y="703" text-anchor="middle" style="font:500 12px &#39;JetBrains Mono&#39;, monospace;fill:#3b414d;">pool</text><line x1="166" y1="690" x2="285.9" y2="690" stroke="#3b414d" stroke-width="1.6" stroke-linecap="round"></line><path d="M294 690 L285.71045105397405 693.5047650807778 L285.71045105397405 686.4952349192222 Z" fill="#3b414d"></path><line x1="346" y1="690" x2="485.9" y2="690" stroke="#3b414d" stroke-width="1.6" stroke-linecap="round"></line><path d="M494 690 L485.71045105397405 693.5047650807778 L485.71045105397405 686.4952349192222 Z" fill="#3b414d"></path><line x1="546" y1="690" x2="685.9" y2="690" stroke="#3b414d" stroke-width="1.6" stroke-linecap="round"></line><path d="M694 690 L685.710451053974 693.5047650807778 L685.710451053974 686.4952349192222 Z" fill="#3b414d"></path><line x1="746" y1="690" x2="885.9" y2="690" stroke="#3b414d" stroke-width="1.6" stroke-linecap="round"></line><path d="M894 690 L885.710451053974 693.5047650807778 L885.710451053974 686.4952349192222 Z" fill="#3b414d"></path><line x1="946" y1="690" x2="1065.9" y2="690" stroke="#3b414d" stroke-width="1.6" stroke-linecap="round"></line><path d="M1074 690 L1065.710451053974 693.5047650807778 L1065.710451053974 686.4952349192222 Z" fill="#3b414d"></path><text x="1232" y="672" text-anchor="start" style="font:700 13px &#39;Inter&#39;, sans-serif;fill:#20242c;">H</text><text x="1248" y="672" text-anchor="start" style="font:400 12px &#39;JetBrains Mono&#39;, monospace;fill:#737a88;"> = BN → ReLU → 3×3 Conv</text><path d="M1232 694 q 24 -16 48 0" fill="none" stroke="#2f6fd6" stroke-width="1.2" opacity="0.6"></path><text x="1288" y="698" text-anchor="start" style="font:400 12px &#39;Inter&#39;, sans-serif;fill:#737a88;">feature-map concatenation</text></svg>