<svg xmlns="http://www.w3.org/2000/svg" viewBox="0 0 1680 772" width="1680" height="772" style="display:block"><rect x="0" y="0" width="1680" height="772" fill="#ffffff"></rect><path d="M350 132 V123 H752 V132" fill="none" stroke="#c6ccd6" stroke-width="1.2"></path><text x="551" y="117" text-anchor="middle" style="font:600 13px &#39;Inter&#39;, sans-serif;fill:#3b414d;">Four residual stages   ·   depths [3, 4, 6, 3]   ·   widths 64 → 512   ·   ~23 M params, no pretraining</text><polygon points="192,150 192,150 192,300 192,300" fill="#d6d9df" stroke="#aeb4bf" stroke-width="1.1" stroke-linejoin="round"></polygon><polygon points="70,150 192,150 192,150 70,150" fill="#f4f5f7" stroke="#aeb4bf" stroke-width="1.1" stroke-linejoin="round"></polygon><rect x="70" y="150" width="122" height="150" fill="#e8eaee" stroke="#aeb4bf" stroke-width="1.1"></rect><clipPath id="cl2_70"><rect x="70" y="150" width="122" height="150"></rect></clipPath><g clip-path="url(#cl2_70)"><line x1="-80" y1="150" x2="70" y2="300" stroke="#9aa0ad" stroke-width="0.8" opacity="0.5"></line><line x1="-72" y1="150" x2="78" y2="300" stroke="#9aa0ad" stroke-width="0.8" opacity="0.5"></line><line x1="-64" y1="150" x2="86" y2="300" stroke="#9aa0ad" stroke-width="0.8" opacity="0.5"></line><line x1="-56" y1="150" x2="94" y2="300" stroke="#9aa0ad" stroke-width="0.8" opacity="0.5"></line><line x1="-48" y1="150" x2="102" y2="300" stroke="#9aa0ad" stroke-width="0.8" opacity="0.5"></line><line x1="-40" y1="150" x2="110" y2="300" stroke="#9aa0ad" stroke-width="0.8" opacity="0.5"></line><line x1="-32" y1="150" x2="118" y2="300" stroke="#9aa0ad" stroke-width="0.8" opacity="0.5"></line><line x1="-24" y1="150" x2="126" y2="300" stroke="#9aa0ad" stroke-width="0.8" opacity="0.5"></line><line x1="-16" y1="150" x2="134" y2="300" stroke="#9aa0ad" stroke-width="0.8" opacity="0.5"></line><line x1="-8" y1="150" x2="142" y2="300" stroke="#9aa0ad" stroke-width="0.8" opacity="0.5"></line><line x1="0" y1="150" x2="150" y2="300" stroke="#9aa0ad" stroke-width="0.8" opacity="0.5"></line><line x1="8" y1="150" x2="158" y2="300" stroke="#9aa0ad" stroke-width="0.8" opacity="0.5"></line><line x1="16" y1="150" x2="166" y2="300" stroke="#9aa0ad" stroke-width="0.8" opacity="0.5"></line><line x1="24" y1="150" x2="174" y2="300" stroke="#9aa0ad" stroke-width="0.8" opacity="0.5"></line><line x1="32" y1="150" x2="182" y2="300" stroke="#9aa0ad" stroke-width="0.8" opacity="0.5"></line><line x1="40" y1="150" x2="190" y2="300" stroke="#9aa0ad" stroke-width="0.8" opacity="0.5"></line><line x1="48" y1="150" x2="198" y2="300" stroke="#9aa0ad" stroke-width="0.8" opacity="0.5"></line><line x1="56" y1="150" x2="206" y2="300" stroke="#9aa0ad" stroke-width="0.8" opacity="0.5"></line><line x1="64" y1="150" x2="214" y2="300" stroke="#9aa0ad" stroke-width="0.8" opacity="0.5"></line><line x1="72" y1="150" x2="222" y2="300" stroke="#9aa0ad" stroke-width="0.8" opacity="0.5"></line><line x1="80" y1="150" x2="230" y2="300" stroke="#9aa0ad" stroke-width="0.8" opacity="0.5"></line><line x1="88" y1="150" x2="238" y2="300" stroke="#9aa0ad" stroke-width="0.8" opacity="0.5"></line><line x1="96" y1="150" x2="246" y2="300" stroke="#9aa0ad" stroke-width="0.8" opacity="0.5"></line><line x1="104" y1="150" x2="254" y2="300" stroke="#9aa0ad" stroke-width="0.8" opacity="0.5"></line><line x1="112" y1="150" x2="262" y2="300" stroke="#9aa0ad" stroke-width="0.8" opacity="0.5"></line><line x1="120" y1="150" x2="270" y2="300" stroke="#9aa0ad" stroke-width="0.8" opacity="0.5"></line><line x1="128" y1="150" x2="278" y2="300" stroke="#9aa0ad" stroke-width="0.8" opacity="0.5"></line><line x1="136" y1="150" x2="286" y2="300" stroke="#9aa0ad" stroke-width="0.8" opacity="0.5"></line><line x1="144" y1="150" x2="294" y2="300" stroke="#9aa0ad" stroke-width="0.8" opacity="0.5"></line><line x1="152" y1="150" x2="302" y2="300" stroke="#9aa0ad" stroke-width="0.8" opacity="0.5"></line><line x1="160" y1="150" x2="310" y2="300" stroke="#9aa0ad" stroke-width="0.8" opacity="0.5"></line><line x1="168" y1="150" x2="318" y2="300" stroke="#9aa0ad" stroke-width="0.8" opacity="0.5"></line><line x1="176" y1="150" x2="326" y2="300" stroke="#9aa0ad" stroke-width="0.8" opacity="0.5"></line><line x1="184" y1="150" x2="334" y2="300" stroke="#9aa0ad" stroke-width="0.8" opacity="0.5"></line></g><text x="131" y="152" text-anchor="middle" style="font:500 12.5px &#39;JetBrains Mono&#39;, monospace;fill:#737a88;">320 × 320 × 3</text><text x="131" y="334" text-anchor="middle" style="font:700 15.5px &#39;Inter&#39;, sans-serif;fill:#20242c;">Input</text><polygon points="300,178 316,167.44 316,289.44 300,300" fill="#cbdef5" stroke="#9cbbe4" stroke-width="1.1" stroke-linejoin="round"></polygon><polygon points="240,178 300,178 316,167.44 256,167.44" fill="#eff5fe" stroke="#9cbbe4" stroke-width="1.1" stroke-linejoin="round"></polygon><rect x="240" y="178" width="60" height="122" fill="#e1ecfb" stroke="#9cbbe4" stroke-width="1.1"></rect><text x="270" y="152" text-anchor="middle" style="font:500 12.5px &#39;JetBrains Mono&#39;, monospace;fill:#737a88;">80² · 64</text><text x="270" y="334" text-anchor="middle" style="font:700 15.5px &#39;Inter&#39;, sans-serif;fill:#20242c;">Stem</text><text x="270" y="354" text-anchor="middle" style="font:400 12.5px &#39;JetBrains Mono&#39;, monospace;fill:#737a88;">7×7 s2 · pool</text><polygon points="420,178 438,166.12 438,288.12 420,300" fill="#cbdef5" stroke="#9cbbe4" stroke-width="1.1" stroke-linejoin="round"></polygon><polygon points="350,178 420,178 438,166.12 368,166.12" fill="#eff5fe" stroke="#9cbbe4" stroke-width="1.1" stroke-linejoin="round"></polygon><rect x="350" y="178" width="70" height="122" fill="#e1ecfb" stroke="#9cbbe4" stroke-width="1.1"></rect><text x="385" y="244.6" text-anchor="middle" style="font:700 16px &#39;Inter&#39;, sans-serif;fill:#20242c;">×3</text><text x="385" y="152" text-anchor="middle" style="font:500 12.5px &#39;JetBrains Mono&#39;, monospace;fill:#737a88;">80² · 64</text><text x="385" y="334" text-anchor="middle" style="font:700 15.5px &#39;Inter&#39;, sans-serif;fill:#20242c;">Stage 1</text><text x="385" y="354" text-anchor="middle" style="font:400 12.5px &#39;JetBrains Mono&#39;, monospace;fill:#737a88;">×3</text><polygon points="536,202 564,183.52 564,281.52 536,300" fill="#b1d0f0" stroke="#86abdd" stroke-width="1.1" stroke-linejoin="round"></polygon><polygon points="470,202 536,202 564,183.52 498,183.52" fill="#deecfb" stroke="#86abdd" stroke-width="1.1" stroke-linejoin="round"></polygon><rect x="470" y="202" width="66" height="98" fill="#cbdef6" stroke="#86abdd" stroke-width="1.1"></rect><text x="503" y="256.6" text-anchor="middle" style="font:700 16px &#39;Inter&#39;, sans-serif;fill:#20242c;">×4</text><text x="503" y="152" text-anchor="middle" style="font:500 12.5px &#39;JetBrains Mono&#39;, monospace;fill:#737a88;">40² · 128</text><text x="503" y="334" text-anchor="middle" style="font:700 15.5px &#39;Inter&#39;, sans-serif;fill:#20242c;">Stage 2</text><text x="503" y="354" text-anchor="middle" style="font:400 12.5px &#39;JetBrains Mono&#39;, monospace;fill:#737a88;">×4</text><polygon points="646,224 686,197.6 686,273.6 646,300" fill="#90b5e9" stroke="#6f97d6" stroke-width="1.1" stroke-linejoin="round"></polygon><polygon points="584,224 646,224 686,197.6 624,197.6" fill="#c6dcf7" stroke="#6f97d6" stroke-width="1.1" stroke-linejoin="round"></polygon><rect x="584" y="224" width="62" height="76" fill="#abc9f0" stroke="#6f97d6" stroke-width="1.1"></rect><text x="615" y="267.6" text-anchor="middle" style="font:700 16px &#39;Inter&#39;, sans-serif;fill:#20242c;">×6</text><text x="615" y="152" text-anchor="middle" style="font:500 12.5px &#39;JetBrains Mono&#39;, monospace;fill:#737a88;">20² · 256</text><text x="615" y="334" text-anchor="middle" style="font:700 15.5px &#39;Inter&#39;, sans-serif;fill:#20242c;">Stage 3</text><text x="615" y="354" text-anchor="middle" style="font:400 12.5px &#39;JetBrains Mono&#39;, monospace;fill:#737a88;">×6</text><polygon points="752,242 804,207.68 804,265.68 752,300" fill="#6f97e1" stroke="#5a82cf" stroke-width="1.1" stroke-linejoin="round"></polygon><polygon points="694,242 752,242 804,207.68 746,207.68" fill="#a6c6f2" stroke="#5a82cf" stroke-width="1.1" stroke-linejoin="round"></polygon><rect x="694" y="242" width="58" height="58" fill="#88b0ec" stroke="#5a82cf" stroke-width="1.1"></rect><text x="723" y="276.6" text-anchor="middle" style="font:700 16px &#39;Inter&#39;, sans-serif;fill:#fff;">×3</text><text x="723" y="152" text-anchor="middle" style="font:500 12.5px &#39;JetBrains Mono&#39;, monospace;fill:#737a88;">10² · 512</text><text x="723" y="334" text-anchor="middle" style="font:700 15.5px &#39;Inter&#39;, sans-serif;fill:#20242c;">Stage 4</text><text x="723" y="354" text-anchor="middle" style="font:400 12.5px &#39;JetBrains Mono&#39;, monospace;fill:#737a88;">×3</text><line x1="196" y1="262" x2="225.9" y2="262" stroke="#3b414d" stroke-width="1.8" stroke-linecap="round"></line><path d="M234 262 L225.71045105397403 265.5047650807779 L225.71045105397403 258.4952349192221 Z" fill="#3b414d"></path><line x1="304" y1="262" x2="335.9" y2="262" stroke="#3b414d" stroke-width="1.8" stroke-linecap="round"></line><path d="M344 262 L335.71045105397405 265.5047650807779 L335.71045105397405 258.4952349192221 Z" fill="#3b414d"></path><line x1="424" y1="262" x2="455.9" y2="262" stroke="#3b414d" stroke-width="1.8" stroke-linecap="round"></line><path d="M464 262 L455.71045105397405 265.5047650807779 L455.71045105397405 258.4952349192221 Z" fill="#3b414d"></path><text x="445" y="253" text-anchor="middle" style="font:600 12.5px &#39;JetBrains Mono&#39;, monospace;fill:#cf6037;">↓2</text><line x1="540" y1="262" x2="569.9" y2="262" stroke="#3b414d" stroke-width="1.8" stroke-linecap="round"></line><path d="M578 262 L569.710451053974 265.5047650807779 L569.710451053974 258.4952349192221 Z" fill="#3b414d"></path><text x="560" y="253" text-anchor="middle" style="font:600 12.5px &#39;JetBrains Mono&#39;, monospace;fill:#cf6037;">↓2</text><line x1="650" y1="262" x2="679.9" y2="262" stroke="#3b414d" stroke-width="1.8" stroke-linecap="round"></line><path d="M688 262 L679.710451053974 265.5047650807779 L679.710451053974 258.4952349192221 Z" fill="#3b414d"></path><text x="670" y="253" text-anchor="middle" style="font:600 12.5px &#39;JetBrains Mono&#39;, monospace;fill:#cf6037;">↓2</text><line x1="756" y1="262" x2="785.9111955824067" y2="260.4257265482944" stroke="#3b414d" stroke-width="1.8" stroke-linecap="round"></line><path d="M794 260 L785.906114988389 263.93560991700394 L785.5377022623588 256.9357681224304 Z" fill="#3b414d"></path><rect x="800" y="214" width="132" height="92" rx="9" fill="#fbfcfe" stroke="#c6ccd6" stroke-width="1.3"></rect><text x="866" y="250" text-anchor="middle" style="font:700 14.5px &#39;Inter&#39;, sans-serif;fill:#20242c;">Global avg pool</text><text x="866" y="272" text-anchor="middle" style="font:400 12.5px &#39;JetBrains Mono&#39;, monospace;fill:#737a88;">Dropout 0.5</text><line x1="936" y1="260" x2="957.9" y2="260" stroke="#3b414d" stroke-width="1.8" stroke-linecap="round"></line><path d="M966 260 L957.710451053974 263.5047650807779 L957.710451053974 256.4952349192221 Z" fill="#3b414d"></path><rect x="974" y="194" width="26" height="12" fill="#cbdef6" stroke="#86abdd" stroke-width="0.8"></rect><rect x="974" y="206" width="26" height="12" fill="#cbdef6" stroke="#86abdd" stroke-width="0.8"></rect><rect x="974" y="218" width="26" height="12" fill="#cbdef6" stroke="#86abdd" stroke-width="0.8"></rect><rect x="974" y="230" width="26" height="12" fill="#cbdef6" stroke="#86abdd" stroke-width="0.8"></rect><rect x="974" y="242" width="26" height="12" fill="#cbdef6" stroke="#86abdd" stroke-width="0.8"></rect><rect x="974" y="254" width="26" height="12" fill="#cbdef6" stroke="#86abdd" stroke-width="0.8"></rect><rect x="974" y="266" width="26" height="12" fill="#cbdef6" stroke="#86abdd" stroke-width="0.8"></rect><rect x="974" y="278" width="26" height="12" fill="#cbdef6" stroke="#86abdd" stroke-width="0.8"></rect><rect x="974" y="290" width="26" height="12" fill="#cbdef6" stroke="#86abdd" stroke-width="0.8"></rect><rect x="974" y="302" width="26" height="12" fill="#cbdef6" stroke="#86abdd" stroke-width="0.8"></rect><rect x="974" y="314" width="26" height="12" fill="#cbdef6" stroke="#86abdd" stroke-width="0.8"></rect><rect x="974" y="194" width="26" height="132" fill="none" stroke="#737a88" stroke-width="1.1"></rect><text x="987" y="344" text-anchor="middle" style="font:600 12.5px &#39;JetBrains Mono&#39;, monospace;fill:#737a88;">512-d</text><text x="987" y="360" text-anchor="middle" style="font:400 11.5px &#39;Inter&#39;, sans-serif;fill:#9aa0ad;">shared</text><path d="M1000 260 L1070 260 L1070 188 L1150 188" fill="none" stroke="#3b414d" stroke-width="1.8" stroke-linejoin="round" stroke-linecap="round"></path><path d="M1150 188 L1141.710451053974 191.50476508077784 L1141.710451053974 184.49523491922216 Z" fill="#3b414d"></path><path d="M1000 260 L1070 260 L1070 388 L1150 388" fill="none" stroke="#3b414d" stroke-width="1.8" stroke-linejoin="round" stroke-linecap="round"></path><path d="M1150 388 L1141.710451053974 391.5047650807779 L1141.710451053974 384.4952349192221 Z" fill="#3b414d"></path><rect x="1156" y="122" width="444" height="132" rx="11" fill="#fffcfa" stroke="#c6ccd6" stroke-width="1.3"></rect><path d="M1157.5 133 a9.5 9.5 0 0 1 9.5 -9.5 M1157.5 243 a9.5 9.5 0 0 0 9.5 9.5"></path><rect x="1156" y="122" width="4" height="132" rx="2" fill="#cf6037"></rect><rect x="1160" y="122" width="6" height="132" fill="#fffcfa"></rect><text x="1182" y="150" text-anchor="start" style="font:700 18px &#39;Inter&#39;, sans-serif;fill:#20242c;">Multi-label head</text><text x="1578" y="150" text-anchor="end" style="font:600 11px &#39;JetBrains Mono&#39;, monospace;fill:#cf6037;letter-spacing:0.4px;text-transform:uppercase;">primary task</text><text x="1182" y="176" text-anchor="start" style="font:400 14px &#39;JetBrains Mono&#39;, monospace;fill:#3b414d;">Linear 512 → 14   ·   sigmoid</text><text x="1182" y="198" text-anchor="start" style="font:400 12.5px &#39;JetBrains Mono&#39;, monospace;fill:#737a88;">weighted BCE · per-class pos_weight</text><rect x="1182" y="216" width="13" height="22" rx="2.5" fill="#cf6037" stroke="#cf6037" stroke-width="0.7" opacity="0.92"></rect><rect x="1203" y="216" width="13" height="22" rx="2.5" fill="#f2d9cd" stroke="#cf6037" stroke-width="0.7" opacity="0.6"></rect><rect x="1224" y="216" width="13" height="22" rx="2.5" fill="#f2d9cd" stroke="#cf6037" stroke-width="0.7" opacity="0.6"></rect><rect x="1245" y="216" width="13" height="22" rx="2.5" fill="#f2d9cd" stroke="#cf6037" stroke-width="0.7" opacity="0.6"></rect><rect x="1266" y="216" width="13" height="22" rx="2.5" fill="#cf6037" stroke="#cf6037" stroke-width="0.7" opacity="0.92"></rect><rect x="1287" y="216" width="13" height="22" rx="2.5" fill="#f2d9cd" stroke="#cf6037" stroke-width="0.7" opacity="0.6"></rect><rect x="1308" y="216" width="13" height="22" rx="2.5" fill="#f2d9cd" stroke="#cf6037" stroke-width="0.7" opacity="0.6"></rect><rect x="1329" y="216" width="13" height="22" rx="2.5" fill="#f2d9cd" stroke="#cf6037" stroke-width="0.7" opacity="0.6"></rect><rect x="1350" y="216" width="13" height="22" rx="2.5" fill="#cf6037" stroke="#cf6037" stroke-width="0.7" opacity="0.92"></rect><rect x="1371" y="216" width="13" height="22" rx="2.5" fill="#f2d9cd" stroke="#cf6037" stroke-width="0.7" opacity="0.6"></rect><rect x="1392" y="216" width="13" height="22" rx="2.5" fill="#f2d9cd" stroke="#cf6037" stroke-width="0.7" opacity="0.6"></rect><rect x="1413" y="216" width="13" height="22" rx="2.5" fill="#f2d9cd" stroke="#cf6037" stroke-width="0.7" opacity="0.6"></rect><rect x="1434" y="216" width="13" height="22" rx="2.5" fill="#cf6037" stroke="#cf6037" stroke-width="0.7" opacity="0.92"></rect><rect x="1455" y="216" width="13" height="22" rx="2.5" fill="#f2d9cd" stroke="#cf6037" stroke-width="0.7" opacity="0.6"></rect><text x="1488" y="232" text-anchor="start" style="font:400 11.5px &#39;Inter&#39;, sans-serif;fill:#737a88;">14 pathologies</text><rect x="1156" y="332" width="444" height="112" rx="11" fill="#fafcff" stroke="#c6ccd6" stroke-width="1.3"></rect><path d="M1157.5 343 a9.5 9.5 0 0 1 9.5 -9.5 M1157.5 433 a9.5 9.5 0 0 0 9.5 9.5"></path><rect x="1156" y="332" width="4" height="112" rx="2" fill="#2f6fd6"></rect><rect x="1160" y="332" width="6" height="112" fill="#fafcff"></rect><text x="1182" y="362" text-anchor="start" style="font:700 18px &#39;Inter&#39;, sans-serif;fill:#20242c;">Binary head</text><text x="1578" y="362" text-anchor="end" style="font:600 11px &#39;JetBrains Mono&#39;, monospace;fill:#2f6fd6;letter-spacing:0.4px;text-transform:uppercase;">auxiliary</text><text x="1182" y="390" text-anchor="start" style="font:400 14px &#39;JetBrains Mono&#39;, monospace;fill:#3b414d;">Linear 512 → 1   ·   sigmoid</text><text x="1182" y="414" text-anchor="start" style="font:400 12.5px &#39;JetBrains Mono&#39;, monospace;fill:#737a88;">BCE   ·   Normal vs. Abnormal</text><line x1="70" y1="432" x2="1610" y2="432" stroke="#e2e6ec" stroke-width="1.4"></line><text x="72" y="458" text-anchor="start" style="font:700 12.5px &#39;Inter&#39;, sans-serif;fill:#20242c;letter-spacing:1.6px;text-transform:uppercase;">SE RESIDUAL BLOCK</text><text x="290" y="458" text-anchor="start" style="font:400 12.5px &#39;Inter&#39;, sans-serif;fill:#737a88;">— the per-block unit; channel attention recalibrates features after every convolution</text><rect x="72" y="632" width="62" height="56" rx="9" fill="#f4f6f9" stroke="#c6ccd6" stroke-width="1.3"></rect><text x="103" y="666" text-anchor="middle" style="font:600 22px &#39;Inter&#39;, sans-serif;fill:#20242c;">x</text><text x="103" y="706" text-anchor="middle" style="font:400 11px &#39;Inter&#39;, sans-serif;fill:#737a88;">block in</text><line x1="134" y1="660" x2="175.9" y2="660" stroke="#3b414d" stroke-width="1.7" stroke-linecap="round"></line><path d="M184 660 L175.71045105397403 663.5047650807778 L175.71045105397403 656.4952349192222 Z" fill="#3b414d"></path><rect x="186" y="632" width="156" height="56" rx="9" fill="#fff" stroke="#c6ccd6" stroke-width="1.3"></rect><text x="264" y="665" text-anchor="middle" style="font:500 13px &#39;JetBrains Mono&#39;, monospace;fill:#3b414d;">3×3 Conv · BN · ReLU</text><line x1="342" y1="660" x2="363.9" y2="660" stroke="#3b414d" stroke-width="1.7" stroke-linecap="round"></line><path d="M372 660 L363.71045105397405 663.5047650807778 L363.71045105397405 656.4952349192222 Z" fill="#3b414d"></path><rect x="374" y="632" width="140" height="56" rx="9" fill="#fff" stroke="#c6ccd6" stroke-width="1.3"></rect><text x="444" y="665" text-anchor="middle" style="font:500 13px &#39;JetBrains Mono&#39;, monospace;fill:#3b414d;">3×3 Conv · BN</text><line x1="514" y1="660" x2="1196" y2="660" stroke="#3b414d" stroke-width="1.7"></line><text x="560" y="651" text-anchor="middle" style="font:700 14px &#39;Inter&#39;, sans-serif;fill:#214f96;">U</text><text x="560" y="678" text-anchor="middle" style="font:400 10.5px &#39;Inter&#39;, sans-serif;fill:#737a88;">feature maps</text><path d="M514 648 L514 524 L536 524" fill="none" stroke="#2f6fd6" stroke-width="1.6" stroke-linejoin="round" stroke-linecap="round"></path><path d="M536 524 L527.710451053974 527.5047650807778 L527.710451053974 520.4952349192222 Z" fill="#2f6fd6"></path><rect x="538" y="502" width="120" height="44" rx="8" fill="#fbfcfe" stroke="#c6ccd6" stroke-width="1.3"></rect><text x="598" y="528.5" text-anchor="middle" style="font:500 12px &#39;JetBrains Mono&#39;, monospace;fill:#3b414d;">global avg pool</text><line x1="658" y1="524" x2="681.9" y2="524" stroke="#2f6fd6" stroke-width="1.5" stroke-linecap="round"></line><path d="M690 524 L681.710451053974 527.5047650807778 L681.710451053974 520.4952349192222 Z" fill="#2f6fd6"></path><rect x="692" y="502" width="122" height="44" rx="8" fill="#fbfcfe" stroke="#c6ccd6" stroke-width="1.3"></rect><text x="753" y="528.5" text-anchor="middle" style="font:500 12px &#39;JetBrains Mono&#39;, monospace;fill:#3b414d;">FC  C → C/16</text><line x1="814" y1="524" x2="833.9" y2="524" stroke="#2f6fd6" stroke-width="1.5" stroke-linecap="round"></line><path d="M842 524 L833.710451053974 527.5047650807778 L833.710451053974 520.4952349192222 Z" fill="#2f6fd6"></path><rect x="844" y="502" width="64" height="44" rx="8" fill="#fbfcfe" stroke="#c6ccd6" stroke-width="1.3"></rect><text x="876" y="528.5" text-anchor="middle" style="font:500 12px &#39;JetBrains Mono&#39;, monospace;fill:#3b414d;">ReLU</text><line x1="908" y1="524" x2="927.9" y2="524" stroke="#2f6fd6" stroke-width="1.5" stroke-linecap="round"></line><path d="M936 524 L927.710451053974 527.5047650807778 L927.710451053974 520.4952349192222 Z" fill="#2f6fd6"></path><rect x="938" y="502" width="122" height="44" rx="8" fill="#fbfcfe" stroke="#c6ccd6" stroke-width="1.3"></rect><text x="999" y="528.5" text-anchor="middle" style="font:500 12px &#39;JetBrains Mono&#39;, monospace;fill:#3b414d;">FC  C/16 → C</text><line x1="1060" y1="524" x2="1079.9" y2="524" stroke="#2f6fd6" stroke-width="1.5" stroke-linecap="round"></line><path d="M1088 524 L1079.710451053974 527.5047650807778 L1079.710451053974 520.4952349192222 Z" fill="#2f6fd6"></path><rect x="1090" y="502" width="86" height="44" rx="8" fill="#fbfcfe" stroke="#c6ccd6" stroke-width="1.3"></rect><text x="1133" y="528.5" text-anchor="middle" style="font:500 12px &#39;JetBrains Mono&#39;, monospace;fill:#3b414d;">sigmoid</text><path d="M538 498 V491 H658 V498" fill="none" stroke="#c6ccd6" stroke-width="1.2"></path><text x="598" y="485" text-anchor="middle" style="font:600 10.5px &#39;JetBrains Mono&#39;, monospace;fill:#737a88;letter-spacing:0.6px;text-transform:uppercase;">squeeze</text><path d="M692 498 V491 H1176 V498" fill="none" stroke="#c6ccd6" stroke-width="1.2"></path><text x="934" y="485" text-anchor="middle" style="font:600 10.5px &#39;JetBrains Mono&#39;, monospace;fill:#737a88;letter-spacing:0.6px;text-transform:uppercase;">excitation</text><path d="M1176 524 L1204 524 L1204 648" fill="none" stroke="#2f6fd6" stroke-width="1.6" stroke-linejoin="round" stroke-linecap="round"></path><path d="M1204 648 L1200.4952349192222 639.710451053974 L1207.5047650807778 639.710451053974 Z" fill="#2f6fd6"></path><text x="1232" y="522" text-anchor="start" style="font:600 11px &#39;Inter&#39;, sans-serif;fill:#214f96;">channel</text><text x="1232" y="537" text-anchor="start" style="font:600 11px &#39;Inter&#39;, sans-serif;fill:#214f96;">weights s</text><circle cx="1204" cy="660" r="18" fill="#fff" stroke="#2f6fd6" stroke-width="1.6"></circle><text x="1204" y="666.5" text-anchor="middle" style="font:600 20px &#39;Inter&#39;, sans-serif;fill:#2f6fd6;">×</text><line x1="1222" y1="660" x2="1275.9" y2="660" stroke="#3b414d" stroke-width="1.7" stroke-linecap="round"></line><path d="M1284 660 L1275.710451053974 663.5047650807778 L1275.710451053974 656.4952349192222 Z" fill="#3b414d"></path><circle cx="1302" cy="660" r="18" fill="#fff" stroke="#cf6037" stroke-width="1.6"></circle><text x="1302" y="668" text-anchor="middle" style="font:600 26px &#39;Inter&#39;, sans-serif;fill:#cf6037;">+</text><path d="M103 632 L103 478 L1302 478 L1302 642" fill="none" stroke="#cf6037" stroke-width="1.6" stroke-linejoin="round" stroke-linecap="round"></path><path d="M1302 642 L1298.4952349192222 633.710451053974 L1305.5047650807778 633.710451053974 Z" fill="#cf6037"></path><rect x="560" y="469" width="180" height="17" fill="#fffcfa"></rect><text x="650" y="481" text-anchor="middle" style="font:600 11.5px &#39;Inter&#39;, sans-serif;fill:#cf6037;">identity skip connection</text><line x1="1320" y1="660" x2="1343.9" y2="660" stroke="#3b414d" stroke-width="1.7" stroke-linecap="round"></line><path d="M1352 660 L1343.710451053974 663.5047650807778 L1343.710451053974 656.4952349192222 Z" fill="#3b414d"></path><rect x="1354" y="632" width="86" height="56" rx="9" fill="#fff" stroke="#c6ccd6" stroke-width="1.3"></rect><text x="1397" y="665" text-anchor="middle" style="font:500 13px &#39;JetBrains Mono&#39;, monospace;fill:#3b414d;">ReLU</text><line x1="1440" y1="660" x2="1463.9" y2="660" stroke="#3b414d" stroke-width="1.7" stroke-linecap="round"></line><path d="M1472 660 L1463.710451053974 663.5047650807778 L1463.710451053974 656.4952349192222 Z" fill="#3b414d"></path><rect x="1474" y="632" width="78" height="56" rx="9" fill="#f4f6f9" stroke="#c6ccd6" stroke-width="1.3"></rect><text x="1513" y="665" text-anchor="middle" style="font:600 14px &#39;JetBrains Mono&#39;, monospace;fill:#20242c;">F_out</text><text x="1513" y="706" text-anchor="middle" style="font:400 11px &#39;Inter&#39;, sans-serif;fill:#737a88;">next block</text></svg>