<svg xmlns="http://www.w3.org/2000/svg" viewBox="0 0 1680 640" width="1680" height="640" style="display:block"><rect x="0" y="0" width="1680" height="640" fill="#ffffff"></rect><rect x="232" y="118" width="136" height="446" fill="#fbf3ef"></rect><rect x="368" y="118" width="1224" height="446" fill="#f7fafe"></rect><path d="M234 116 V107 H366 V116" fill="none" stroke="#c6ccd6" stroke-width="1.2"></path><text x="300" y="101" text-anchor="middle" style="font:700 12.5px &#39;Inter&#39;, sans-serif;fill:#cf6037;letter-spacing:0.8px;text-transform:uppercase;">PHASE 1 — warm up the heads</text><path d="M370 116 V107 H1590 V116" fill="none" stroke="#c6ccd6" stroke-width="1.2"></path><text x="980" y="101" text-anchor="middle" style="font:700 12.5px &#39;Inter&#39;, sans-serif;fill:#214f96;letter-spacing:0.8px;text-transform:uppercase;">PHASE 2 — end-to-end fine-tuning</text><line x1="368" y1="124" x2="368" y2="560" stroke="#cf6037" stroke-width="1.6" stroke-dasharray="5 5"></line><rect x="252" y="128" width="232" height="40" rx="8" fill="#fff" stroke="#cf6037" stroke-width="1.3"></rect><text x="368" y="144" text-anchor="middle" style="font:700 12.5px &#39;JetBrains Mono&#39;, monospace;fill:#cf6037;">epoch 6</text><text x="368" y="160" text-anchor="middle" style="font:400 12.5px &#39;JetBrains Mono&#39;, monospace;fill:#3b414d;">unfreeze_backbone()</text><line x1="640" y1="186" x2="640" y2="560" stroke="#3b414d" stroke-width="1.3" stroke-dasharray="2 4"></line><path d="M640 188 l 9 9 l -9 9 l -9 -9 z" fill="#cf6037"></path><text x="640" y="184" text-anchor="middle" style="font:600 12px &#39;Inter&#39;, sans-serif;fill:#20242c;">best val checkpoint · epoch 18</text><text x="210" y="238" text-anchor="end" style="font:700 15px &#39;Inter&#39;, sans-serif;fill:#20242c;">Backbone</text><text x="210" y="257" text-anchor="end" style="font:400 12px &#39;JetBrains Mono&#39;, monospace;fill:#737a88;">DenseNet-121</text><text x="210" y="322" text-anchor="end" style="font:700 15px &#39;Inter&#39;, sans-serif;fill:#20242c;">Feature layer</text><text x="210" y="341" text-anchor="end" style="font:400 12px &#39;JetBrains Mono&#39;, monospace;fill:#737a88;">+ two heads</text><rect x="232" y="214" width="136" height="64" rx="9" fill="#eef0f3" stroke="#9aa0ad" stroke-width="1.2"></rect><clipPath id="frz"><rect x="232" y="214" width="136" height="64" rx="9"></rect></clipPath><g clip-path="url(#frz)"><line x1="168" y1="214" x2="232" y2="278" stroke="#9aa0ad" stroke-width="1" opacity="0.55"></line><line x1="177" y1="214" x2="241" y2="278" stroke="#9aa0ad" stroke-width="1" opacity="0.55"></line><line x1="186" y1="214" x2="250" y2="278" stroke="#9aa0ad" stroke-width="1" opacity="0.55"></line><line x1="195" y1="214" x2="259" y2="278" stroke="#9aa0ad" stroke-width="1" opacity="0.55"></line><line x1="204" y1="214" x2="268" y2="278" stroke="#9aa0ad" stroke-width="1" opacity="0.55"></line><line x1="213" y1="214" x2="277" y2="278" stroke="#9aa0ad" stroke-width="1" opacity="0.55"></line><line x1="222" y1="214" x2="286" y2="278" stroke="#9aa0ad" stroke-width="1" opacity="0.55"></line><line x1="231" y1="214" x2="295" y2="278" stroke="#9aa0ad" stroke-width="1" opacity="0.55"></line><line x1="240" y1="214" x2="304" y2="278" stroke="#9aa0ad" stroke-width="1" opacity="0.55"></line><line x1="249" y1="214" x2="313" y2="278" stroke="#9aa0ad" stroke-width="1" opacity="0.55"></line><line x1="258" y1="214" x2="322" y2="278" stroke="#9aa0ad" stroke-width="1" opacity="0.55"></line><line x1="267" y1="214" x2="331" y2="278" stroke="#9aa0ad" stroke-width="1" opacity="0.55"></line><line x1="276" y1="214" x2="340" y2="278" stroke="#9aa0ad" stroke-width="1" opacity="0.55"></line><line x1="285" y1="214" x2="349" y2="278" stroke="#9aa0ad" stroke-width="1" opacity="0.55"></line><line x1="294" y1="214" x2="358" y2="278" stroke="#9aa0ad" stroke-width="1" opacity="0.55"></line><line x1="303" y1="214" x2="367" y2="278" stroke="#9aa0ad" stroke-width="1" opacity="0.55"></line><line x1="312" y1="214" x2="376" y2="278" stroke="#9aa0ad" stroke-width="1" opacity="0.55"></line><line x1="321" y1="214" x2="385" y2="278" stroke="#9aa0ad" stroke-width="1" opacity="0.55"></line><line x1="330" y1="214" x2="394" y2="278" stroke="#9aa0ad" stroke-width="1" opacity="0.55"></line><line x1="339" y1="214" x2="403" y2="278" stroke="#9aa0ad" stroke-width="1" opacity="0.55"></line><line x1="348" y1="214" x2="412" y2="278" stroke="#9aa0ad" stroke-width="1" opacity="0.55"></line><line x1="357" y1="214" x2="421" y2="278" stroke="#9aa0ad" stroke-width="1" opacity="0.55"></line><line x1="366" y1="214" x2="430" y2="278" stroke="#9aa0ad" stroke-width="1" opacity="0.55"></line></g><text x="300" y="250.5" text-anchor="middle" style="font:700 12.5px &#39;Inter&#39;, sans-serif;fill:#737a88;letter-spacing:1px;text-transform:uppercase;">FROZEN</text><rect x="368" y="214" width="1224" height="64" rx="9" fill="#cbdef6" stroke="#86abdd" stroke-width="1.2"></rect><text x="980" y="251" text-anchor="middle" style="font:600 13.5px &#39;Inter&#39;, sans-serif;fill:#214f96;">trainable — backbone specializes to chest-X-ray features</text><rect x="232" y="300" width="1360" height="64" rx="9" fill="#fdeee7" stroke="#cf6037" stroke-width="1.2"></rect><line x1="368" y1="300" x2="368" y2="364" stroke="#cf6037" stroke-width="1" stroke-dasharray="3 3" opacity="0.6"></line><text x="300" y="337" text-anchor="middle" style="font:600 13px &#39;Inter&#39;, sans-serif;fill:#cf6037;">trainable</text><text x="980" y="337" text-anchor="middle" style="font:600 13.5px &#39;Inter&#39;, sans-serif;fill:#cf6037;">trainable — newly-initialized weights adapt throughout</text><line x1="232" y1="524" x2="1592" y2="524" stroke="#c6ccd6" stroke-width="1"></line><line x1="232" y1="418" x2="1592" y2="418" stroke="#e2e6ec" stroke-width="1" stroke-dasharray="3 4"></line><text x="220" y="422" text-anchor="end" style="font:400 11.5px &#39;JetBrains Mono&#39;, monospace;fill:#737a88;">1e-3</text><line x1="232" y1="513.4" x2="1592" y2="513.4" stroke="#e2e6ec" stroke-width="1" stroke-dasharray="3 4"></line><text x="220" y="517.4" text-anchor="end" style="font:400 11.5px &#39;JetBrains Mono&#39;, monospace;fill:#737a88;">1e-4</text><line x1="232" y1="524" x2="1592" y2="524" stroke="#e2e6ec" stroke-width="1" stroke-dasharray="3 4"></line><text x="220" y="528" text-anchor="end" style="font:400 11.5px &#39;JetBrains Mono&#39;, monospace;fill:#737a88;">0</text><text x="220" y="400" text-anchor="end" style="font:600 12px &#39;Inter&#39;, sans-serif;fill:#3b414d;">learning rate</text><path d="M232 418 L368 418 L368 513.4 L368 513.4 L390.66666666666663 513.4089667611623 L413.33333333333337 513.4358367039677 L436 513.4805189090353 L458.66666666666663 513.5428621859269 L481.3333333333333 513.6226555847279 L504 513.7196291098347 L526.6666666666667 513.8334546335345 L549.3333333333333 513.9637470062859 L572 514.1100653599425 L594.6666666666667 514.2719145995114 L617.3333333333333 514.4487470783982 L640 514.6399644514694 L662.6666666666666 514.8449196996628 L685.3333333333333 515.0629193192957 L708 515.2932256686613 L730.6666666666666 515.5350594639752 L753.3333333333334 515.7876024162247 L776 516.05 L798.6666666666667 516.3213643449376 L821.3333333333334 516.6007772399925 L844 516.887293240374 L866.6666666666666 517.1799428666312 L889.3333333333334 517.477735885065 L912 517.7796646583653 L934.6666666666667 518.0847075551363 L957.3333333333334 518.3918324067745 L980.0000000000001 518.7 L1002.6666666666666 519.0081675932255 L1025.3333333333335 519.3152924448638 L1048 519.6203353416347 L1070.6666666666667 519.9222641149349 L1093.3333333333333 520.2200571333688 L1116 520.5127067596261 L1138.6666666666665 520.7992227600075 L1161.3333333333335 521.0786356550625 L1184 521.35 L1206.6666666666665 521.6123975837753 L1229.3333333333333 521.8649405360247 L1252 522.1067743313387 L1274.6666666666667 522.3370806807043 L1297.3333333333333 522.5550803003372 L1320 522.7600355485306 L1342.6666666666667 522.9512529216017 L1365.3333333333335 523.1280854004885 L1388 523.2899346400575 L1410.6666666666667 523.4362529937141 L1433.3333333333333 523.5665453664654 L1456 523.6803708901654 L1478.6666666666665 523.7773444152721 L1501.3333333333333 523.8571378140731 L1524 523.9194810909647 L1546.6666666666667 523.9641632960323 L1569.3333333333333 523.9910332388378 L1592 524" fill="none" stroke="#2f6fd6" stroke-width="2.4" stroke-linejoin="round" stroke-linecap="round"></path><rect x="248" y="388" width="104" height="22" rx="11" fill="#fff" stroke="#c6ccd6" stroke-width="1"></rect><text x="300" y="403" text-anchor="middle" style="font:600 12px &#39;JetBrains Mono&#39;, monospace;fill:#214f96;">lr = 1e-3</text><text x="518" y="499.4" text-anchor="start" style="font:600 12px &#39;JetBrains Mono&#39;, monospace;fill:#214f96;">lr = 1e-4, cosine anneal → 0</text><line x1="254.66666666666666" y1="524" x2="254.66666666666666" y2="530" stroke="#737a88" stroke-width="1.1"></line><text x="254.66666666666666" y="546" text-anchor="middle" style="font:400 11.5px &#39;JetBrains Mono&#39;, monospace;fill:#737a88;">1</text><line x1="345.3333333333333" y1="524" x2="345.3333333333333" y2="530" stroke="#737a88" stroke-width="1.1"></line><text x="345.3333333333333" y="546" text-anchor="middle" style="font:400 11.5px &#39;JetBrains Mono&#39;, monospace;fill:#737a88;">5</text><line x1="368" y1="524" x2="368" y2="530" stroke="#737a88" stroke-width="1.1"></line><text x="368" y="546" text-anchor="middle" style="font:700 11.5px &#39;JetBrains Mono&#39;, monospace;fill:#cf6037;">6</text><line x1="458.66666666666663" y1="524" x2="458.66666666666663" y2="530" stroke="#737a88" stroke-width="1.1"></line><text x="458.66666666666663" y="546" text-anchor="middle" style="font:400 11.5px &#39;JetBrains Mono&#39;, monospace;fill:#737a88;">10</text><line x1="640" y1="524" x2="640" y2="530" stroke="#737a88" stroke-width="1.1"></line><text x="640" y="546" text-anchor="middle" style="font:700 11.5px &#39;JetBrains Mono&#39;, monospace;fill:#20242c;">18</text><line x1="685.3333333333333" y1="524" x2="685.3333333333333" y2="530" stroke="#737a88" stroke-width="1.1"></line><text x="685.3333333333333" y="546" text-anchor="middle" style="font:400 11.5px &#39;JetBrains Mono&#39;, monospace;fill:#737a88;">20</text><line x1="912" y1="524" x2="912" y2="530" stroke="#737a88" stroke-width="1.1"></line><text x="912" y="546" text-anchor="middle" style="font:400 11.5px &#39;JetBrains Mono&#39;, monospace;fill:#737a88;">30</text><line x1="1138.6666666666665" y1="524" x2="1138.6666666666665" y2="530" stroke="#737a88" stroke-width="1.1"></line><text x="1138.6666666666665" y="546" text-anchor="middle" style="font:400 11.5px &#39;JetBrains Mono&#39;, monospace;fill:#737a88;">40</text><line x1="1365.3333333333335" y1="524" x2="1365.3333333333335" y2="530" stroke="#737a88" stroke-width="1.1"></line><text x="1365.3333333333335" y="546" text-anchor="middle" style="font:400 11.5px &#39;JetBrains Mono&#39;, monospace;fill:#737a88;">50</text><line x1="1592" y1="524" x2="1592" y2="530" stroke="#737a88" stroke-width="1.1"></line><text x="1592" y="546" text-anchor="middle" style="font:400 11.5px &#39;JetBrains Mono&#39;, monospace;fill:#737a88;">60</text><text x="912" y="568" text-anchor="middle" style="font:600 12px &#39;Inter&#39;, sans-serif;fill:#737a88;letter-spacing:1px;text-transform:uppercase;">epoch</text></svg>